<?xml version="1.0" standalone="no"?>
<!DOCTYPE svg PUBLIC "-//W3C//DTD SVG 20010904//EN"
 "http://www.w3.org/TR/2001/REC-SVG-20010904/DTD/svg10.dtd">
<svg version="1.0" xmlns="http://www.w3.org/2000/svg"
 width="200.000000pt" height="200.000000pt" viewBox="0 0 200.000000 200.000000"
 preserveAspectRatio="xMidYMid meet">
<metadata>
Created by potrace 1.11, written by Peter Selinger 2001-2013
</metadata>
<g transform="translate(0.000000,200.000000) scale(0.100000,-0.100000)"
fill="#000000" stroke="none">
<path d="M0 1000 l0 -1000 1000 0 1000 0 0 1000 0 1000 -1000 0 -1000 0 0
-1000z m1205 646 c114 -36 195 -88 284 -182 132 -139 186 -278 185 -474 -1
-96 -5 -128 -27 -195 -91 -277 -327 -460 -612 -472 -127 -6 -219 13 -334 68
-121 59 -240 177 -299 299 -23 47 -49 112 -57 145 -20 78 -20 249 1 329 48
190 181 354 354 439 52 26 127 53 165 62 99 21 238 13 340 -19z"/>
<path d="M845 1561 c-136 -40 -246 -120 -324 -236 -60 -90 -91 -181 -98 -290
-5 -78 9 -191 25 -207 5 -5 49 57 98 138 49 80 99 153 111 161 27 18 15 25
210 -114 73 -51 136 -93 141 -93 5 0 80 81 167 180 87 99 163 181 169 181 28
3 45 -8 130 -82 50 -44 92 -75 94 -71 1 5 -8 38 -21 73 -63 176 -220 318 -402
364 -79 20 -224 18 -300 -4z"/>
<path d="M1225 1012 c-152 -174 -189 -212 -208 -212 -6 0 -82 49 -167 109
-118 83 -158 107 -166 98 -6 -7 -50 -77 -98 -156 -103 -168 -103 -153 10 -267
73 -74 164 -127 264 -155 68 -19 224 -16 294 5 204 61 360 221 411 421 8 32
15 75 14 95 0 36 -15 51 -184 192 l-33 28 -137 -158z"/>
</g>
</svg>
